{
	"asset":{
		"generator":"Khronos glTF Blender I/O v3.5.30",
		"version":"2.0"
	},
	"scene":0,
	"scenes":[
		{
			"name":"Scene",
			"nodes":[
				0
			]
		}
	],
	"nodes":[
		{
			"extras":{
				"sparkar_optimization":{
					"InvertedReducePercentage":0.0
				},
				"spark_blender_addon":1
			},
			"mesh":0,
			"name":"Green Mask2",
			"translation":[
				0,
				0.11244142800569534,
				0
			]
		}
	],
	"materials":[
		{
			"doubleSided":true,
			"name":"Material",
			"pbrMetallicRoughness":{
				"baseColorFactor":[
					0.17174381017684937,
					0.8000000715255737,
					0.25525325536727905,
					1
				],
				"roughnessFactor":0.08636390417814255
			}
		}
	],
	"meshes":[
		{
			"name":"Mesh.002",
			"primitives":[
				{
					"attributes":{
						"POSITION":0,
						"NORMAL":1
					},
					"indices":2,
					"material":0
				}
			]
		}
	],
	"accessors":[
		{
			"bufferView":0,
			"componentType":5126,
			"count":13034,
			"max":[
				2.138979434967041,
				2.5885543823242188,
				0.01042602676898241
			],
			"min":[
				-2.1381843090057373,
				-1.5987794399261475,
				-2.1115102767944336
			],
			"type":"VEC3"
		},
		{
			"bufferView":1,
			"componentType":5126,
			"count":13034,
			"type":"VEC3"
		},
		{
			"bufferView":2,
			"componentType":5123,
			"count":78228,
			"type":"SCALAR"
		}
	],
	"bufferViews":[
		{
			"buffer":0,
			"byteLength":156408,
			"byteOffset":0,
			"target":34962
		},
		{
			"buffer":0,
			"byteLength":156408,
			"byteOffset":156408,
			"target":34962
		},
		{
			"buffer":0,
			"byteLength":156456,
			"byteOffset":312816,
			"target":34963
		}
	],
	"buffers":[
		{
			"byteLength":469272,
			"uri":"data:application/octet-stream;base64,"
		}
	]
}
