{
	"asset":{
		"generator":"Khronos glTF Blender I/O v3.5.30",
		"version":"2.0"
	},
	"scene":0,
	"scenes":[
		{
			"name":"Scene",
			"nodes":[
				0
			]
		}
	],
	"nodes":[
		{
			"extras":{
				"sparkar_optimization":{
					"InvertedReducePercentage":0.0
				},
				"spark_blender_addon":1
			},
			"mesh":0,
			"name":"Silver 4_eyes",
			"rotation":[
				-0.0010766691993921995,
				-0.004116343334317207,
				-0.030831793323159218,
				0.9995156526565552
			],
			"scale":[
				0.15137124061584473,
				0.15137124061584473,
				0.15137124061584473
			],
			"translation":[
				0.06317326426506042,
				0.32815319299697876,
				-0.4196806848049164
			]
		}
	],
	"materials":[
		{
			"doubleSided":true,
			"name":"Material.005",
			"pbrMetallicRoughness":{
				"baseColorFactor":[
					0.4028451144695282,
					0.4028451144695282,
					0.4028451144695282,
					1
				],
				"roughnessFactor":0.0363636314868927
			}
		},
		{
			"doubleSided":true,
			"name":"Material.004",
			"pbrMetallicRoughness":{
				"baseColorFactor":[
					0.4028451144695282,
					0.4028451144695282,
					0.4028451144695282,
					1
				],
				"roughnessFactor":0.0363636314868927
			}
		},
		{
			"doubleSided":true,
			"name":"Material.006",
			"pbrMetallicRoughness":{
				"baseColorFactor":[
					0.4028451144695282,
					0.4028451144695282,
					0.4028451144695282,
					1
				],
				"roughnessFactor":0.0363636314868927
			}
		},
		{
			"doubleSided":true,
			"name":"Material.007",
			"pbrMetallicRoughness":{
				"baseColorFactor":[
					0.4028451144695282,
					0.4028451144695282,
					0.4028451144695282,
					1
				],
				"roughnessFactor":0.0363636314868927
			}
		},
		{
			"doubleSided":true,
			"name":"Material.008",
			"pbrMetallicRoughness":{
				"baseColorFactor":[
					0.4028451144695282,
					0.4028451144695282,
					0.4028451144695282,
					1
				],
				"roughnessFactor":0.0363636314868927
			}
		},
		{
			"doubleSided":true,
			"name":"Material.009",
			"pbrMetallicRoughness":{
				"baseColorFactor":[
					0.4028451144695282,
					0.4028451144695282,
					0.4028451144695282,
					1
				],
				"roughnessFactor":0.0363636314868927
			}
		},
		{
			"doubleSided":true,
			"name":"Material.010",
			"pbrMetallicRoughness":{
				"baseColorFactor":[
					0.4028451144695282,
					0.4028451144695282,
					0.4028451144695282,
					1
				],
				"roughnessFactor":0.0363636314868927
			}
		},
		{
			"doubleSided":true,
			"name":"Material.011",
			"pbrMetallicRoughness":{
				"baseColorFactor":[
					0.4028451144695282,
					0.4028451144695282,
					0.4028451144695282,
					1
				],
				"roughnessFactor":0.0363636314868927
			}
		},
		{
			"doubleSided":true,
			"name":"Material.012",
			"pbrMetallicRoughness":{
				"baseColorFactor":[
					0.4028451144695282,
					0.4028451144695282,
					0.4028451144695282,
					1
				],
				"roughnessFactor":0.0363636314868927
			}
		}
	],
	"meshes":[
		{
			"name":"Mball.002",
			"primitives":[
				{
					"attributes":{
						"POSITION":0,
						"NORMAL":1
					},
					"indices":2,
					"material":0
				},
				{
					"attributes":{
						"POSITION":3,
						"NORMAL":4
					},
					"indices":5,
					"material":1
				},
				{
					"attributes":{
						"POSITION":6,
						"NORMAL":7
					},
					"indices":8,
					"material":2
				},
				{
					"attributes":{
						"POSITION":9,
						"NORMAL":10
					},
					"indices":11,
					"material":3
				},
				{
					"attributes":{
						"POSITION":12,
						"NORMAL":13
					},
					"indices":14,
					"material":4
				},
				{
					"attributes":{
						"POSITION":15,
						"NORMAL":16
					},
					"indices":17,
					"material":5
				},
				{
					"attributes":{
						"POSITION":18,
						"NORMAL":19
					},
					"indices":20,
					"material":6
				},
				{
					"attributes":{
						"POSITION":21,
						"NORMAL":22
					},
					"indices":23,
					"material":7
				},
				{
					"attributes":{
						"POSITION":24,
						"NORMAL":25
					},
					"indices":26,
					"material":8
				}
			]
		}
	],
	"accessors":[
		{
			"bufferView":0,
			"componentType":5126,
			"count":3230,
			"max":[
				8.67857551574707,
				4.146819114685059,
				3.8259220123291016
			],
			"min":[
				-9.719888687133789,
				-2.156801223754883,
				-0.669649600982666
			],
			"type":"VEC3"
		},
		{
			"bufferView":1,
			"componentType":5126,
			"count":3230,
			"type":"VEC3"
		},
		{
			"bufferView":2,
			"componentType":5123,
			"count":19356,
			"type":"SCALAR"
		},
		{
			"bufferView":3,
			"componentType":5126,
			"count":1069,
			"max":[
				7.53192138671875,
				7.214627742767334,
				3.3195807933807373
			],
			"min":[
				-9.39063549041748,
				2.4469661712646484,
				0.15464965999126434
			],
			"type":"VEC3"
		},
		{
			"bufferView":4,
			"componentType":5126,
			"count":1069,
			"type":"VEC3"
		},
		{
			"bufferView":5,
			"componentType":5123,
			"count":6390,
			"type":"SCALAR"
		},
		{
			"bufferView":6,
			"componentType":5126,
			"count":1896,
			"max":[
				7.646049499511719,
				2.770601272583008,
				4.933897972106934
			],
			"min":[
				-8.73432445526123,
				-0.9462628364562988,
				2.6460227966308594
			],
			"type":"VEC3"
		},
		{
			"bufferView":7,
			"componentType":5126,
			"count":1896,
			"type":"VEC3"
		},
		{
			"bufferView":8,
			"componentType":5123,
			"count":11352,
			"type":"SCALAR"
		},
		{
			"bufferView":9,
			"componentType":5126,
			"count":1736,
			"max":[
				11.787240028381348,
				3.4499359130859375,
				2.0639078617095947
			],
			"min":[
				-13.08005142211914,
				-0.3839244544506073,
				0.8235465288162231
			],
			"type":"VEC3"
		},
		{
			"bufferView":10,
			"componentType":5126,
			"count":1736,
			"type":"VEC3"
		},
		{
			"bufferView":11,
			"componentType":5123,
			"count":10392,
			"type":"SCALAR"
		},
		{
			"bufferView":12,
			"componentType":5126,
			"count":1788,
			"max":[
				5.077741622924805,
				3.186542272567749,
				2.9198617935180664
			],
			"min":[
				-6.241652488708496,
				0.6087552309036255,
				0.16491752862930298
			],
			"type":"VEC3"
		},
		{
			"bufferView":13,
			"componentType":5126,
			"count":1788,
			"type":"VEC3"
		},
		{
			"bufferView":14,
			"componentType":5123,
			"count":10704,
			"type":"SCALAR"
		},
		{
			"bufferView":15,
			"componentType":5126,
			"count":2017,
			"max":[
				10.092447280883789,
				5.793053150177002,
				2.3324530124664307
			],
			"min":[
				-11.5965576171875,
				2.6668314933776855,
				-0.7053172588348389
			],
			"type":"VEC3"
		},
		{
			"bufferView":16,
			"componentType":5126,
			"count":2017,
			"type":"VEC3"
		},
		{
			"bufferView":17,
			"componentType":5123,
			"count":12078,
			"type":"SCALAR"
		},
		{
			"bufferView":18,
			"componentType":5126,
			"count":1121,
			"max":[
				6.5651044845581055,
				2.665663480758667,
				2.800565004348755
			],
			"min":[
				-7.785836696624756,
				0.5576972365379333,
				0.7067721486091614
			],
			"type":"VEC3"
		},
		{
			"bufferView":19,
			"componentType":5126,
			"count":1121,
			"type":"VEC3"
		},
		{
			"bufferView":20,
			"componentType":5123,
			"count":6702,
			"type":"SCALAR"
		},
		{
			"bufferView":21,
			"componentType":5126,
			"count":737,
			"max":[
				4.168458461761475,
				-0.5879397988319397,
				2.7968013286590576
			],
			"min":[
				-4.724108695983887,
				-6.0340471267700195,
				1.7053743600845337
			],
			"type":"VEC3"
		},
		{
			"bufferView":22,
			"componentType":5126,
			"count":737,
			"type":"VEC3"
		},
		{
			"bufferView":23,
			"componentType":5123,
			"count":4398,
			"type":"SCALAR"
		},
		{
			"bufferView":24,
			"componentType":5126,
			"count":1220,
			"max":[
				5.684358596801758,
				-0.45459237694740295,
				3.055177688598633
			],
			"min":[
				-6.224196910858154,
				-9.552842140197754,
				1.1971720457077026
			],
			"type":"VEC3"
		},
		{
			"bufferView":25,
			"componentType":5126,
			"count":1220,
			"type":"VEC3"
		},
		{
			"bufferView":26,
			"componentType":5123,
			"count":7296,
			"type":"SCALAR"
		}
	],
	"bufferViews":[
		{
			"buffer":0,
			"byteLength":38760,
			"byteOffset":0,
			"target":34962
		},
		{
			"buffer":0,
			"byteLength":38760,
			"byteOffset":38760,
			"target":34962
		},
		{
			"buffer":0,
			"byteLength":38712,
			"byteOffset":77520,
			"target":34963
		},
		{
			"buffer":0,
			"byteLength":12828,
			"byteOffset":116232,
			"target":34962
		},
		{
			"buffer":0,
			"byteLength":12828,
			"byteOffset":129060,
			"target":34962
		},
		{
			"buffer":0,
			"byteLength":12780,
			"byteOffset":141888,
			"target":34963
		},
		{
			"buffer":0,
			"byteLength":22752,
			"byteOffset":154668,
			"target":34962
		},
		{
			"buffer":0,
			"byteLength":22752,
			"byteOffset":177420,
			"target":34962
		},
		{
			"buffer":0,
			"byteLength":22704,
			"byteOffset":200172,
			"target":34963
		},
		{
			"buffer":0,
			"byteLength":20832,
			"byteOffset":222876,
			"target":34962
		},
		{
			"buffer":0,
			"byteLength":20832,
			"byteOffset":243708,
			"target":34962
		},
		{
			"buffer":0,
			"byteLength":20784,
			"byteOffset":264540,
			"target":34963
		},
		{
			"buffer":0,
			"byteLength":21456,
			"byteOffset":285324,
			"target":34962
		},
		{
			"buffer":0,
			"byteLength":21456,
			"byteOffset":306780,
			"target":34962
		},
		{
			"buffer":0,
			"byteLength":21408,
			"byteOffset":328236,
			"target":34963
		},
		{
			"buffer":0,
			"byteLength":24204,
			"byteOffset":349644,
			"target":34962
		},
		{
			"buffer":0,
			"byteLength":24204,
			"byteOffset":373848,
			"target":34962
		},
		{
			"buffer":0,
			"byteLength":24156,
			"byteOffset":398052,
			"target":34963
		},
		{
			"buffer":0,
			"byteLength":13452,
			"byteOffset":422208,
			"target":34962
		},
		{
			"buffer":0,
			"byteLength":13452,
			"byteOffset":435660,
			"target":34962
		},
		{
			"buffer":0,
			"byteLength":13404,
			"byteOffset":449112,
			"target":34963
		},
		{
			"buffer":0,
			"byteLength":8844,
			"byteOffset":462516,
			"target":34962
		},
		{
			"buffer":0,
			"byteLength":8844,
			"byteOffset":471360,
			"target":34962
		},
		{
			"buffer":0,
			"byteLength":8796,
			"byteOffset":480204,
			"target":34963
		},
		{
			"buffer":0,
			"byteLength":14640,
			"byteOffset":489000,
			"target":34962
		},
		{
			"buffer":0,
			"byteLength":14640,
			"byteOffset":503640,
			"target":34962
		},
		{
			"buffer":0,
			"byteLength":14592,
			"byteOffset":518280,
			"target":34963
		}
	],
	"buffers":[
		{
			"byteLength":532872,
			"uri":"data:application/octet-stream;base64,"
		}
	]
}
