{
	"asset":{
		"generator":"Khronos glTF Blender I/O v3.5.30",
		"version":"2.0"
	},
	"scene":0,
	"scenes":[
		{
			"name":"Scene",
			"nodes":[
				0
			]
		}
	],
	"nodes":[
		{
			"extras":{
				"sparkar_optimization":{
					"InvertedReducePercentage":0.0
				},
				"spark_blender_addon":1
			},
			"mesh":0,
			"name":"silver Mask3",
			"translation":[
				0.05723094567656517,
				0.718445897102356,
				0.045568857342004776
			]
		}
	],
	"materials":[
		{
			"doubleSided":true,
			"name":"Material.003",
			"pbrMetallicRoughness":{
				"baseColorFactor":[
					0.48084568977355957,
					0.48084568977355957,
					0.48084568977355957,
					1
				],
				"roughnessFactor":0.027272731065750122
			}
		}
	],
	"meshes":[
		{
			"name":"Mesh.018",
			"primitives":[
				{
					"attributes":{
						"POSITION":0,
						"NORMAL":1
					},
					"indices":2,
					"material":0
				}
			]
		}
	],
	"accessors":[
		{
			"bufferView":0,
			"componentType":5126,
			"count":14839,
			"max":[
				1.2626124620437622,
				1.9329793453216553,
				0.5462599396705627
			],
			"min":[
				-1.263759970664978,
				-1.769608736038208,
				-1.0233830213546753
			],
			"type":"VEC3"
		},
		{
			"bufferView":1,
			"componentType":5126,
			"count":14839,
			"type":"VEC3"
		},
		{
			"bufferView":2,
			"componentType":5123,
			"count":89040,
			"type":"SCALAR"
		}
	],
	"bufferViews":[
		{
			"buffer":0,
			"byteLength":178068,
			"byteOffset":0,
			"target":34962
		},
		{
			"buffer":0,
			"byteLength":178068,
			"byteOffset":178068,
			"target":34962
		},
		{
			"buffer":0,
			"byteLength":178080,
			"byteOffset":356136,
			"target":34963
		}
	],
	"buffers":[
		{
			"byteLength":534216,
			"uri":"data:application/octet-stream;base64,"
		}
	]
}
